#!OML:ASF X:\für Bonn\!DataBase\2005_08_12_Daniel\c3d\Daniel.ASF
:FULLY-SPECIFIED
:DEGREES
203
root -0.415792 15.1666 1.29493 176.701 -7.55799 -184.911
lowerback 71.1308 -5.93867 17.729
upperback 11.6137 -3.45416 -2.05366
thorax -7.43721 -4.47244 -7.39316
lowerneck 2.69863 -6.40894 -2.09544
upperneck 9.53394 -9.09021 -0.250499
head 2.6499 -4.72758 0.122992
rclavicle 4.77083e-014 3.81667e-014
rhumerus 198.346 -162.092 -259.639
rradius 10.6639
rwrist 28.3453
rhand -21.8645 17.3562
rfingers 7.12502
rthumb 4.53959 -12.5751
lclavicle 4.77083e-014 3.81667e-014
lhumerus -21.1728 -6.95402 92.0523
lradius 37.3124
lwrist 1.7083
lhand -11.128 -8.27569
lfingers 7.12502
lthumb 14.8972 21.1687
rfemur -42.745 -2.25116 10.5428
rtibia 76.165
rfoot -29.3171 -6.12398
rtoes -17.2638
lfemur -44.0881 -1.04115 -24.9013
ltibia 76.1686
lfoot -26.2924 -13.4392
ltoes -2.98346
204
root -0.410946 15.2664 1.28046 176.568 -7.48373 -184.714
lowerback 70.4637 -5.7734 17.585
upperback 11.7105 -3.45845 -2.05358
thorax -7.39351 -4.45956 -7.37166
lowerneck 2.78487 -6.27235 -2.1283
upperneck 9.42937 -8.90026 -0.298533
head 2.59597 -4.63711 0.122681
rclavicle -2.70347e-014 -1.66979e-014
rhumerus 196.765 -164.337 -259.064
rradius 11.1247
rwrist 26.4257
rhand -21.4748 17.1482
rfingers 7.12502
rthumb 4.91593 -12.7748
lclavicle -2.70347e-014 -1.66979e-014
lhumerus -21.0466 -6.24968 91.8942
lradius 36.7622
lwrist 1.15244
lhand -11.1317 -8.17121
lfingers 7.12502
lthumb 14.8936 21.2734
rfemur -41.6704 -2.08798 10.8126
rtibia 74.7414
rfoot -29.0172 -6.18598
rtoes -17.0053
lfemur -43.1179 -1.19313 -24.6476
ltibia 74.9675
lfoot -26.0115 -13.192
ltoes -3.21313
205
root -0.405179 15.3666 1.26473 176.469 -7.38949 -184.52
lowerback 69.7538 -5.58104 17.423
upperback 11.8089 -3.43981 -2.04753
thorax -7.34596 -4.43422 -7.3488
lowerneck 2.79668 -6.13334 -2.15833
upperneck 9.37456 -8.70617 -0.356132
head 2.57147 -4.5447 0.114719
rclavicle 2.8625e-014 3.97569e-014
rhumerus 195.321 -166.119 -258.765
rradius 11.5134
rwrist 24.9354
rhand -21.0741 16.9635
rfingers 7.12502
rthumb 5.30284 -12.9501
lclavicle 2.8625e-014 3.97569e-014
lhumerus -20.9288 -5.49541 91.7217
lradius 36.2282
lwrist 0.559336
lhand -11.1374 -8.10948
lfingers 7.12502
lthumb 14.8881 21.3355
rfemur -40.6237 -1.94039 11.0861
rtibia 73.2917
rfoot -28.6787 -6.21
rtoes -16.7167
lfemur -42.1728 -1.33759 -24.3869
ltibia 73.7391
lfoot -25.7022 -12.9649
ltoes -3.37505
206
root -0.399699 15.4654 1.24828 176.358 -7.30181 -184.324
lowerback 69.0533 -5.4067 17.2696
upperback 11.8805 -3.41593 -2.04087
thorax -7.32274 -4.40587 -7.32819
lowerneck 2.85019 -5.99607 -2.18367
upperneck 9.30748 -8.51585 -0.425084
head 2.53478 -4.45463 0.104135
rclavicle 1.59028e-015 1.27222e-014
rhumerus 193.844 -167.93 -258.491
rradius 11.9492
rwrist 23.3763
rhand -20.7132 16.6716
rfingers 7.12502
rthumb 5.6513 -13.233
lclavicle 1.59028e-015 1.27222e-014
lhumerus -20.8611 -4.6988 91.546
lradius 35.6961
lwrist -0.0466943
lhand -11.1383 -8.05246
lfingers 7.12502
lthumb 14.8873 21.3926
rfemur -39.5582 -1.78821 11.3594
rtibia 71.8265
rfoot -28.3465 -6.24876
rtoes -16.4409
lfemur -41.2126 -1.49229 -24.126
ltibia 72.5115
lfoot -25.4145 -12.7304
ltoes -3.54497
207
root -0.393526 15.5629 1.23115 176.247 -7.21799 -184.127
lowerback 68.2888 -5.23727 17.1221
upperback 11.9731 -3.40242 -2.04768
thorax -7.27648 -4.37719 -7.32517
lowerneck 2.91344 -5.8508 -2.22819
upperneck 9.22061 -8.3155 -0.465123
head 2.49216 -4.35872 0.106467
rclavicle 1.1609e-013 4.53229e-014
rhumerus 192.403 -169.482 -258.408
rradius 12.3559
rwrist 22.0428
rhand -20.4225 16.4331
rfingers 7.12502
rthumb 5.93192 -13.4638
lclavicle 1.1609e-013 4.53229e-014
lhumerus -20.8213 -3.94609 91.3329
lradius 35.1898
lwrist -0.6482
lhand -11.1647 -7.95791
lfingers 7.12502
lthumb 14.8619 21.4891
rfemur -38.4977 -1.68519 11.6422
rtibia 70.3612
rfoot -27.9699 -6.28417
rtoes -16.1045
lfemur -40.2521 -1.6596 -23.8713
ltibia 71.2733
lfoot -25.1088 -12.464
ltoes -3.69643
208
root -0.387163 15.6593 1.21221 176.138 -7.12243 -183.933
lowerback 67.4705 -5.04828 16.9634
upperback 12.0787 -3.37698 -2.0513
thorax -7.21213 -4.34099 -7.32298
lowerneck 2.97388 -5.70715 -2.24866
upperneck 9.17443 -8.11935 -0.51713
head 2.46207 -4.26518 0.099861
rclavicle -3.18055e-014 -4.29375e-014
rhumerus 191.054 -170.433 -258.562
rradius 12.6801
rwrist 21.2762
rhand -20.129 16.2933
rfingers 7.12502
rthumb 6.21531 -13.5955
lclavicle -3.18055e-014 -4.29375e-014
lhumerus -20.7705 -3.15677 91.104
lradius 34.6465
lwrist -1.27624
lhand -11.2111 -7.90294
lfingers 7.12502
lthumb 14.8172 21.5473
rfemur -37.435 -1.56001 11.9233
rtibia 68.89
rfoot -27.6203 -6.35713
rtoes -15.9313
lfemur -39.2849 -1.82779 -23.6111
ltibia 70.0422
lfoot -24.8271 -12.2108
ltoes -3.94582
